<svg width="35" height="35" viewBox="0 0 35 35" fill="none" xmlns="http://www.w3.org/2000/svg">
<g clip-path="url(#clip0_44_1835)">
<path d="M35 17.6064C35 7.94207 27.1644 0.106445 17.5 0.106445C7.83563 0.106445 0 7.94207 0 17.6064C0 26.3419 6.39917 33.581 14.7656 34.8935V22.6654H10.3221V17.605H14.7656V13.7521C14.7656 9.36686 17.379 6.94311 21.3763 6.94311C23.2896 6.94311 25.2933 7.28582 25.2933 7.28582V11.5923H23.0854C20.911 11.5923 20.2329 12.9412 20.2329 14.3252V17.6064H25.0863L24.3104 22.6669H20.2329V34.895C28.6008 33.581 35 26.3404 35 17.6064Z" fill="#FFC727"/>
</g>
<defs>
<clipPath id="clip0_44_1835">
<rect width="35" height="35" fill="white"/>
</clipPath>
</defs>
</svg>
