<svg width="35" height="35" viewBox="0 0 35 35" fill="none" xmlns="http://www.w3.org/2000/svg">
<path d="M34.2679 9.02126C34.0702 8.27645 33.6802 7.59666 33.1371 7.04998C32.594 6.50329 31.9168 6.10888 31.1733 5.90626C28.4448 5.1698 17.5 5.1698 17.5 5.1698C17.5 5.1698 6.55521 5.1698 3.82521 5.90626C3.08205 6.10924 2.40522 6.50379 1.8624 7.05044C1.31959 7.59709 0.929821 8.27669 0.732083 9.02126C0 11.7688 0 17.5 0 17.5C0 17.5 0 23.2313 0.732083 25.9788C0.929813 26.7236 1.31976 27.4034 1.86286 27.95C2.40597 28.4967 3.08318 28.8911 3.82667 29.0938C6.55521 29.8302 17.5 29.8302 17.5 29.8302C17.5 29.8302 28.4448 29.8302 31.1748 29.0938C31.9184 28.8913 32.5956 28.4969 33.1388 27.9502C33.6819 27.4035 34.0718 26.7236 34.2694 25.9788C35 23.2313 35 17.5 35 17.5C35 17.5 35 11.7688 34.2679 9.02126ZM13.9198 22.7033V12.2967L23.0679 17.5L13.9198 22.7033Z" fill="#FFC727"/>
</svg>
